<svg width="722" height="458" viewBox="0 0 722 458" fill="none" xmlns="http://www.w3.org/2000/svg">
<g filter="url(#filter0_bi_64_61)">
<rect width="722" height="458" rx="25" fill="url(#paint0_linear_64_61)"/>
</g>
<path d="M124.498 375.136C124.498 374.233 123.723 373.494 122.776 373.494L92.012 373.494C86.9913 373.494 81.6061 369.4 81.6061 364.459L81.6061 346.226C81.6061 341.285 86.9906 337.109 92.012 337.109L122.776 337.191C123.723 337.191 124.498 336.452 124.498 335.548L124.498 329.635C124.498 328.731 123.723 327.992 122.776 327.992M124.498 375.136C124.498 375.136 124.498 379.818 124.498 381.05M124.498 375.136L124.498 381.05M124.498 381.05C124.498 381.954 123.723 382.693 122.776 382.693M122.776 382.693C121.351 382.693 97.1467 382.693 88.3196 382.693M122.776 382.693L88.3196 382.693M88.3196 327.992C79.4326 327.992 70.4268 336.309 70.4268 349.264C70.4267 362.22 70.4269 353.112 70.4268 361.42C70.4266 374.375 79.4311 382.693 88.3196 382.693M88.3196 327.992C97.2067 327.992 122.776 327.992 122.776 327.992M88.3196 327.992L122.776 327.992" stroke="#FBFDFF" stroke-width="2"/>
<path d="M174.844 359.881V366.964C174.844 370.341 171.858 373.422 169.074 373.422H144.506C143.482 373.422 142.924 373.943 142.924 375.193V380.922C142.924 382.172 143.482 382.693 144.506 382.693H171.121C176.049 382.693 182.196 376.86 182.847 366.964C183.191 361.743 180.148 359.881 179.311 359.881H174.844ZM174.844 359.881V359.367M174.844 359.881H172.973M175.256 337.322H144.526C143.3 337.322 142.923 336.804 142.923 335.56V329.755C142.923 328.718 143.3 327.993 144.526 327.993H169.695C171.768 327.993 175.256 330.687 175.256 334.004V337.322ZM175.256 337.322H179.781C180.63 337.322 183.711 339.175 183.363 344.371C182.703 354.219 176.477 360.025 171.486 360.025H144.526C143.489 360.025 142.923 359.506 142.923 358.262V352.561C142.923 351.317 143.489 350.799 144.526 350.799H169.412C172.232 350.799 175.256 347.732 175.256 344.371V337.322ZM130.525 329.71V380.976C130.525 381.924 131.3 382.693 132.247 382.693H138.446C139.479 382.693 140.168 382.353 140.168 380.976V329.71C140.168 328.696 139.307 327.992 138.446 327.992H132.247C131.128 327.992 130.525 328.696 130.525 329.71Z" stroke="#FBFDFF" stroke-width="2"/>
<text fill="#FBFDFF" xml:space="preserve" style="white-space: pre" font-family="Sora" font-size="24" font-weight="600" letter-spacing="0.1em"><tspan x="219.271" y="368.003">RAFAEL FREITAS</tspan></text>
<rect x="80.2467" y="155.271" width="97.9347" height="69.3144" rx="6.07624" fill="url(#paint1_linear_64_61)" stroke="#211F21" stroke-width="2.14455"/>
<path d="M80.6042 177.781H109.913" stroke="#211F21" stroke-width="2" stroke-linecap="round"/>
<path d="M80.6041 199.933H109.27" stroke="#211F21" stroke-width="2" stroke-linecap="round"/>
<path d="M149.23 199.933H177.824" stroke="#211F21" stroke-width="2" stroke-linecap="round"/>
<path d="M148.8 178.496H177.824" stroke="#211F21" stroke-width="2" stroke-linecap="round"/>
<ellipse cx="129.214" cy="165.633" rx="2.14455" ry="2.14377" fill="#211F21"/>
<path d="M230.879 204.882C236.151 191.652 236.752 184.184 230.879 170.715C230.256 169.286 230.879 168.095 231.594 167.857C232.309 167.619 233.415 167.857 234.096 169.286C241.014 183.796 240.593 191.932 234.453 206.445C233.738 207.874 232.401 208.054 231.594 207.517C230.651 206.888 230.434 205.999 230.879 204.882Z" fill="#FBFDFF"/>
<path d="M223.373 171.787C222.658 172.145 222.201 173.5 223.016 175.003C227.825 185.005 227.627 190.725 223.016 201.086C222.512 202.13 222.824 203.284 223.731 203.587C224.803 203.944 225.739 203.184 226.233 202.157C231.527 191.147 231.666 184.822 226.233 173.217C225.731 172.145 224.445 171.251 223.373 171.787Z" fill="#FBFDFF"/>
<path d="M216.225 176.432C215.152 176.789 214.962 177.975 215.51 179.291C218.356 186.128 218.805 189.961 215.51 196.798C214.867 197.989 214.656 199.253 215.867 199.656C217.078 200.06 217.952 199.423 218.369 198.584C222.592 190.212 221.646 185.519 218.369 177.147C218.09 176.432 217.297 176.075 216.225 176.432Z" fill="#FBFDFF"/>
<path d="M208.719 179.291C207.646 180.005 207.494 181.089 208.361 182.863C210.17 186.629 210.129 188.744 208.361 192.51C207.539 194.172 207.289 196.083 208.719 196.441C210.148 196.798 210.783 196.29 211.578 194.297C213.404 189.051 213.582 186.085 211.578 180.72C211.117 179.328 210.148 178.576 208.719 179.291Z" fill="#FBFDFF"/>
<path d="M144.941 169.92C142.198 160.582 137.077 155.986 128.857 155.986C118.849 155.986 116.02 163.603 109.913 177.423C113.824 186.572 113.865 191.5 109.913 199.933C116.32 218.307 121.066 223.966 129.214 223.872C139.937 223.872 142.989 214.787 148.872 199.933C145.778 191.56 145.448 186.94 148.326 178.568" stroke="#211F21" stroke-width="2" stroke-linecap="round"/>
<ellipse cx="582.358" cy="87.8383" rx="46.3316" ry="45.6713" fill="#E71924"/>
<ellipse cx="638.342" cy="88.0911" rx="45.6881" ry="45.6713" fill="#F99F19"/>
<path fill-rule="evenodd" clip-rule="evenodd" d="M610.27 124.096C599.402 115.734 592.399 102.6 592.399 87.8311C592.399 73.0621 599.402 59.9282 610.27 51.5668C621.138 59.9282 628.141 73.0622 628.141 87.8313C628.141 102.6 621.138 115.734 610.27 124.096Z" fill="#F26520"/>
<defs>
<filter id="filter0_bi_64_61" x="-70" y="-70" width="862" height="598" filterUnits="userSpaceOnUse" color-interpolation-filters="sRGB">
<feFlood flood-opacity="0" result="BackgroundImageFix"/>
<feGaussianBlur in="BackgroundImage" stdDeviation="35"/>
<feComposite in2="SourceAlpha" operator="in" result="effect1_backgroundBlur_64_61"/>
<feBlend mode="normal" in="SourceGraphic" in2="effect1_backgroundBlur_64_61" result="shape"/>
<feColorMatrix in="SourceAlpha" type="matrix" values="0 0 0 0 0 0 0 0 0 0 0 0 0 0 0 0 0 0 127 0" result="hardAlpha"/>
<feOffset dx="3" dy="3"/>
<feGaussianBlur stdDeviation="3"/>
<feComposite in2="hardAlpha" operator="arithmetic" k2="-1" k3="1"/>
<feColorMatrix type="matrix" values="0 0 0 0 1 0 0 0 0 1 0 0 0 0 1 0 0 0 0.25 0"/>
<feBlend mode="normal" in2="shape" result="effect2_innerShadow_64_61"/>
</filter>
<linearGradient id="paint0_linear_64_61" x1="123.83" y1="62.975" x2="380.826" y2="511.801" gradientUnits="userSpaceOnUse">
<stop stop-color="#6BA2F6"/>
<stop offset="1" stop-color="#736EFE"/>
</linearGradient>
<linearGradient id="paint1_linear_64_61" x1="129.214" y1="154.199" x2="129.214" y2="225.658" gradientUnits="userSpaceOnUse">
<stop stop-color="#F4F4F4"/>
<stop offset="1" stop-color="#D6D6D6"/>
</linearGradient>
</defs>
</svg>
