<svg width="722" height="458" viewBox="0 0 722 458" fill="none" xmlns="http://www.w3.org/2000/svg">
<g id="codebank">
<g id="Rectangle 970" filter="url(#filter0_bi_64_61)">
<rect width="722" height="458" rx="25" fill="url(#paint0_linear_64_61)"/>
</g>
<path id="Vector 1" d="M124.498 375.136C124.498 374.233 123.723 373.494 122.776 373.494L92.012 373.494C86.9913 373.494 81.6061 369.4 81.6061 364.459L81.6061 346.226C81.6061 341.285 86.9906 337.109 92.012 337.109L122.776 337.191C123.723 337.191 124.498 336.452 124.498 335.548L124.498 329.635C124.498 328.731 123.723 327.992 122.776 327.992M124.498 375.136C124.498 375.136 124.498 379.818 124.498 381.05M124.498 375.136L124.498 381.05M124.498 381.05C124.498 381.954 123.723 382.693 122.776 382.693M122.776 382.693C121.351 382.693 97.1467 382.693 88.3196 382.693M122.776 382.693L88.3196 382.693M88.3196 327.992C79.4326 327.992 70.4268 336.309 70.4268 349.264C70.4267 362.22 70.4269 353.112 70.4268 361.42C70.4266 374.375 79.4311 382.693 88.3196 382.693M88.3196 327.992C97.2067 327.992 122.776 327.992 122.776 327.992M88.3196 327.992L122.776 327.992" stroke="#FBFDFF" stroke-width="2"/>
<path id="Vector" d="M174.844 359.881V366.964C174.844 370.341 171.858 373.422 169.074 373.422H144.506C143.482 373.422 142.924 373.943 142.924 375.193V380.922C142.924 382.172 143.482 382.693 144.506 382.693H171.121C176.049 382.693 182.196 376.86 182.847 366.964C183.191 361.743 180.148 359.881 179.311 359.881H174.844ZM174.844 359.881V359.367M174.844 359.881H172.973M175.256 337.322H144.526C143.3 337.322 142.923 336.804 142.923 335.56V329.755C142.923 328.718 143.3 327.993 144.526 327.993H169.695C171.768 327.993 175.256 330.687 175.256 334.004V337.322ZM175.256 337.322H179.781C180.63 337.322 183.711 339.175 183.363 344.371C182.703 354.219 176.477 360.025 171.486 360.025H144.526C143.489 360.025 142.923 359.506 142.923 358.262V352.561C142.923 351.317 143.489 350.799 144.526 350.799H169.412C172.232 350.799 175.256 347.732 175.256 344.371V337.322ZM130.525 329.71V380.976C130.525 381.924 131.3 382.693 132.247 382.693H138.446C139.479 382.693 140.168 382.353 140.168 380.976V329.71C140.168 328.696 139.307 327.992 138.446 327.992H132.247C131.128 327.992 130.525 328.696 130.525 329.71Z" stroke="#FBFDFF" stroke-width="2"/>
<path id="Rafael freitas" d="M221.431 367.843V350.203H224.839V367.843H221.431ZM232.135 367.843L226.759 360.211H230.575L236.119 367.843H232.135ZM223.831 361.987V359.227H228.295C228.919 359.227 229.455 359.099 229.903 358.843C230.367 358.587 230.727 358.227 230.983 357.763C231.239 357.299 231.367 356.771 231.367 356.179C231.367 355.571 231.239 355.035 230.983 354.571C230.727 354.107 230.367 353.747 229.903 353.491C229.455 353.235 228.919 353.107 228.295 353.107H223.831V350.203H227.935C229.343 350.203 230.559 350.411 231.583 350.827C232.623 351.243 233.423 351.875 233.983 352.723C234.543 353.571 234.823 354.635 234.823 355.915V356.299C234.823 357.595 234.535 358.659 233.959 359.491C233.399 360.323 232.607 360.947 231.583 361.363C230.559 361.779 229.343 361.987 227.935 361.987H223.831ZM239.376 367.843L245.352 350.323H250.92L257.064 367.843H253.56L248.352 352.651L249.576 353.179H246.576L247.824 352.651L242.784 367.843H239.376ZM243.552 363.187L244.632 360.307H251.736L252.792 363.187H243.552ZM262.067 367.843V350.323H265.475V367.843H262.067ZM264.995 360.547V357.667L272.003 357.643V360.523L264.995 360.547ZM264.995 353.203V350.323H272.339V353.203H264.995ZM275.067 367.843L281.043 350.323H286.611L292.755 367.843H289.251L284.043 352.651L285.267 353.179H282.267L283.515 352.651L278.475 367.843H275.067ZM279.243 363.187L280.323 360.307H287.427L288.483 363.187H279.243ZM297.758 367.843V350.323H301.094V367.843H297.758ZM300.614 367.843V364.963H308.558V367.843H300.614ZM300.614 360.379V357.499H307.934V360.379H300.614ZM300.614 353.203V350.323H308.366V353.203H300.614ZM314.454 367.843V350.323H317.862V367.843H314.454ZM317.382 367.843V364.843H324.942V367.843H317.382ZM337.7 367.843V350.323H341.108V367.843H337.7ZM340.628 360.547V357.667L347.636 357.643V360.523L340.628 360.547ZM340.628 353.203V350.323H347.972V353.203H340.628ZM353.529 367.843V350.203H356.937V367.843H353.529ZM364.233 367.843L358.857 360.211H362.673L368.217 367.843H364.233ZM355.929 361.987V359.227H360.393C361.017 359.227 361.553 359.099 362.001 358.843C362.465 358.587 362.825 358.227 363.081 357.763C363.337 357.299 363.465 356.771 363.465 356.179C363.465 355.571 363.337 355.035 363.081 354.571C362.825 354.107 362.465 353.747 362.001 353.491C361.553 353.235 361.017 353.107 360.393 353.107H355.929V350.203H360.033C361.441 350.203 362.657 350.411 363.681 350.827C364.721 351.243 365.521 351.875 366.081 352.723C366.641 353.571 366.921 354.635 366.921 355.915V356.299C366.921 357.595 366.633 358.659 366.057 359.491C365.497 360.323 364.705 360.947 363.681 361.363C362.657 361.779 361.441 361.987 360.033 361.987H355.929ZM373.203 367.843V350.323H376.539V367.843H373.203ZM376.059 367.843V364.963H384.003V367.843H376.059ZM376.059 360.379V357.499H383.379V360.379H376.059ZM376.059 353.203V350.323H383.811V353.203H376.059ZM389.948 367.843V350.323H393.356V367.843H389.948ZM403.584 367.843V352.843H406.992V367.843H403.584ZM398.52 353.323V350.323H412.056V353.323H398.52ZM413.972 367.843L419.948 350.323H425.516L431.66 367.843H428.156L422.948 352.651L424.172 353.179H421.172L422.42 352.651L417.38 367.843H413.972ZM418.148 363.187L419.228 360.307H426.332L427.388 363.187H418.148ZM442.521 368.299C440.969 368.299 439.657 368.051 438.585 367.555C437.529 367.059 436.721 366.379 436.161 365.515C435.601 364.635 435.321 363.643 435.321 362.539H438.657C438.657 363.003 438.785 363.459 439.041 363.907C439.297 364.339 439.705 364.691 440.265 364.963C440.841 365.235 441.593 365.371 442.521 365.371C443.353 365.371 444.049 365.251 444.609 365.011C445.169 364.771 445.585 364.459 445.857 364.075C446.129 363.675 446.265 363.227 446.265 362.731C446.265 362.107 446.001 361.611 445.473 361.243C444.945 360.859 444.129 360.619 443.025 360.523L441.489 360.403C439.809 360.259 438.465 359.739 437.457 358.843C436.465 357.931 435.969 356.731 435.969 355.243C435.969 354.123 436.233 353.163 436.761 352.363C437.289 351.547 438.025 350.923 438.969 350.491C439.929 350.043 441.049 349.819 442.329 349.819C443.657 349.819 444.801 350.051 445.761 350.515C446.721 350.979 447.465 351.635 447.993 352.483C448.521 353.315 448.785 354.299 448.785 355.435H445.449C445.449 354.955 445.329 354.515 445.089 354.115C444.865 353.699 444.521 353.371 444.057 353.131C443.609 352.875 443.033 352.747 442.329 352.747C441.657 352.747 441.097 352.859 440.649 353.083C440.201 353.307 439.865 353.611 439.641 353.995C439.417 354.379 439.305 354.795 439.305 355.243C439.305 355.787 439.505 356.267 439.905 356.683C440.305 357.083 440.937 357.315 441.801 357.379L443.337 357.523C444.585 357.619 445.681 357.883 446.625 358.315C447.569 358.747 448.297 359.331 448.809 360.067C449.337 360.803 449.601 361.691 449.601 362.731C449.601 363.835 449.313 364.811 448.737 365.659C448.161 366.491 447.337 367.139 446.265 367.603C445.209 368.067 443.961 368.299 442.521 368.299Z" fill="#FBFDFF"/>
<g id="Group 303">
<rect id="Rectangle 344" x="80.2467" y="155.271" width="97.9347" height="69.3144" rx="6.07624" fill="url(#paint1_linear_64_61)" stroke="#211F21" stroke-width="2.14455"/>
<path id="Vector 9" d="M80.6042 177.781H109.913" stroke="#211F21" stroke-width="2" stroke-linecap="round"/>
<path id="Vector 10" d="M80.6041 199.933H109.27" stroke="#211F21" stroke-width="2" stroke-linecap="round"/>
<path id="Vector 11" d="M149.23 199.933H177.824" stroke="#211F21" stroke-width="2" stroke-linecap="round"/>
<path id="Vector 12" d="M148.8 178.496H177.824" stroke="#211F21" stroke-width="2" stroke-linecap="round"/>
<ellipse id="Ellipse 12" cx="129.214" cy="165.633" rx="2.14455" ry="2.14377" fill="#211F21"/>
<g id="Vector 13">
<path d="M230.879 204.882C236.151 191.652 236.752 184.184 230.879 170.715C230.256 169.286 230.879 168.095 231.594 167.857C232.309 167.619 233.415 167.857 234.096 169.286C241.014 183.796 240.593 191.932 234.453 206.445C233.738 207.874 232.401 208.054 231.594 207.517C230.651 206.888 230.434 205.999 230.879 204.882Z" fill="#FBFDFF"/>
<path d="M223.373 171.787C222.658 172.145 222.201 173.5 223.016 175.003C227.825 185.005 227.627 190.725 223.016 201.086C222.512 202.13 222.824 203.284 223.731 203.587C224.803 203.944 225.739 203.184 226.233 202.157C231.527 191.147 231.666 184.822 226.233 173.217C225.731 172.145 224.445 171.251 223.373 171.787Z" fill="#FBFDFF"/>
<path d="M216.225 176.432C215.152 176.789 214.962 177.975 215.51 179.291C218.356 186.128 218.805 189.961 215.51 196.798C214.867 197.989 214.656 199.253 215.867 199.656C217.078 200.06 217.952 199.423 218.369 198.584C222.592 190.212 221.646 185.519 218.369 177.147C218.09 176.432 217.297 176.075 216.225 176.432Z" fill="#FBFDFF"/>
<path d="M208.719 179.291C207.646 180.005 207.494 181.089 208.361 182.863C210.17 186.629 210.129 188.744 208.361 192.51C207.539 194.172 207.289 196.083 208.719 196.441C210.148 196.798 210.783 196.29 211.578 194.297C213.404 189.051 213.582 186.085 211.578 180.72C211.117 179.328 210.148 178.576 208.719 179.291Z" fill="#FBFDFF"/>
</g>
<path id="Vector 14" d="M144.941 169.92C142.198 160.582 137.077 155.986 128.857 155.986C118.849 155.986 116.02 163.603 109.913 177.423C113.824 186.572 113.865 191.5 109.913 199.933C116.32 218.307 121.066 223.966 129.214 223.872C139.937 223.872 142.989 214.787 148.872 199.933C145.778 191.56 145.448 186.94 148.326 178.568" stroke="#211F21" stroke-width="2" stroke-linecap="round"/>
</g>
<ellipse id="Ellipse 16" cx="582.358" cy="87.8383" rx="46.3316" ry="45.6713" fill="#E71924"/>
<ellipse id="Ellipse 17" cx="638.342" cy="88.0911" rx="45.6881" ry="45.6713" fill="#F99F19"/>
<path id="Intersect" fill-rule="evenodd" clip-rule="evenodd" d="M610.27 124.095C599.402 115.734 592.399 102.6 592.399 87.8309C592.399 73.062 599.402 59.9281 610.27 51.5667C621.138 59.9281 628.141 73.062 628.141 87.8311C628.141 102.6 621.138 115.734 610.27 124.095Z" fill="#F26520"/>
</g>
<defs>
<filter id="filter0_bi_64_61" x="-70" y="-70" width="862" height="598" filterUnits="userSpaceOnUse" color-interpolation-filters="sRGB">
<feFlood flood-opacity="0" result="BackgroundImageFix"/>
<feGaussianBlur in="BackgroundImageFix" stdDeviation="35"/>
<feComposite in2="SourceAlpha" operator="in" result="effect1_backgroundBlur_64_61"/>
<feBlend mode="normal" in="SourceGraphic" in2="effect1_backgroundBlur_64_61" result="shape"/>
<feColorMatrix in="SourceAlpha" type="matrix" values="0 0 0 0 0 0 0 0 0 0 0 0 0 0 0 0 0 0 127 0" result="hardAlpha"/>
<feOffset dx="3" dy="3"/>
<feGaussianBlur stdDeviation="3"/>
<feComposite in2="hardAlpha" operator="arithmetic" k2="-1" k3="1"/>
<feColorMatrix type="matrix" values="0 0 0 0 1 0 0 0 0 1 0 0 0 0 1 0 0 0 0.25 0"/>
<feBlend mode="normal" in2="shape" result="effect2_innerShadow_64_61"/>
</filter>
<linearGradient id="paint0_linear_64_61" x1="123.83" y1="62.975" x2="380.826" y2="511.801" gradientUnits="userSpaceOnUse">
<stop stop-color="#6BA2F6"/>
<stop offset="1" stop-color="#736EFE"/>
</linearGradient>
<linearGradient id="paint1_linear_64_61" x1="129.214" y1="154.199" x2="129.214" y2="225.658" gradientUnits="userSpaceOnUse">
<stop stop-color="#F4F4F4"/>
<stop offset="1" stop-color="#D6D6D6"/>
</linearGradient>
</defs>
</svg>
