<svg viewBox="0 0 819 1143" fill="none" xmlns="http://www.w3.org/2000/svg">
<g id="figcb3">
<g id="figcb3-shadow" filter="url(#filter0_f_226_319)">
<ellipse class="figcb3-shadow" cx="397.5" cy="1034" rx="317.5" ry="30" fill="#464646" fill-opacity="0.4"/>
</g>
<g id="figcb3-card-verse" class="figcb3-card-verse">
<g id="Rectangle 967" filter="url(#filter1_i_226_319)">
<rect width="529.68" height="336" rx="14.3374" transform="matrix(0.83147 0.55557 -0.293206 0.956049 125.88 67)" fill="url(#paint0_linear_226_319)"/>
</g>
<rect id="Rectangle 405" width="529.68" height="78.75" transform="matrix(0.83147 0.55557 -0.293206 0.956049 118.781 90.1456)" fill="#D6D6D6"/>
<rect id="Rectangle 406" width="115.501" height="76.125" rx="29.7546" transform="matrix(0.83147 0.55557 -0.293206 0.956049 91.9062 235.294)" fill="url(#paint1_linear_226_319)"/>
<text id="5032 9334 3764 9846" transform="matrix(0.83147 0.55557 -0.293206 0.956049 64.373 325.071)" fill="#FEFBFF" xml:space="preserve" style="white-space: pre" font-family="Sora" font-size="20.6459" letter-spacing="0.03em"><tspan x="0" y="21.5196">5032 9334 3764 9846</tspan></text>
<text id="gold" transform="matrix(0.83147 0.55557 -0.293206 0.956049 130.933 203.903)" fill="#F7F2FA" xml:space="preserve" style="white-space: pre" font-family="Sora" font-size="20.6459" font-weight="600" letter-spacing="0em"><tspan x="0" y="21.5196">gold</tspan></text>
<text id="02/17" transform="matrix(0.83147 0.55557 -0.293206 0.956049 77.3018 383.571)" fill="#FEFBFF" xml:space="preserve" style="white-space: pre" font-family="Sora" font-size="10.3229" letter-spacing="0em"><tspan x="0" y="10.5098">02/17</tspan></text>
<text id="02/23" transform="matrix(0.83147 0.55557 -0.293206 0.956049 139.521 425.144)" fill="#FEFBFF" xml:space="preserve" style="white-space: pre" font-family="Sora" font-size="10.3229" letter-spacing="0em"><tspan x="0" y="10.5098">02/23</tspan></text>
<text id="123" transform="matrix(0.83147 0.55557 -0.293206 0.956049 209.669 472.016)" fill="#FEFBFF" xml:space="preserve" style="white-space: pre" font-family="Sora" font-size="10.3229" letter-spacing="0em"><tspan x="0" y="10.5098">123</tspan></text>
<g id="Group 300">
<text id="cirrus." transform="matrix(0.83147 0.55557 -0.293206 0.956049 415.956 616.613)" fill="#FBF9FC" xml:space="preserve" style="white-space: pre" font-family="Sora" font-size="7.45546" font-weight="600" letter-spacing="0em"><tspan x="0" y="7.53486">cirrus.</tspan></text>
<ellipse id="Ellipse 7" rx="22.7425" ry="22.7424" transform="matrix(0.83147 0.55557 -0.293206 0.956049 424.058 594.984)" fill="#0167B2"/>
<ellipse id="Ellipse 8" rx="22.7425" ry="22.7424" transform="matrix(0.83147 0.55557 -0.293206 0.956049 447.238 610.472)" fill="#02A1E2"/>
<path id="Intersect" fill-rule="evenodd" clip-rule="evenodd" d="M430.321 619.79C427.052 612.82 426.073 604.651 428.224 597.637C430.376 590.623 435.18 586.317 440.885 585.344C444.155 592.314 445.133 600.483 442.982 607.497C440.831 614.511 436.026 618.817 430.321 619.79Z" fill="#207CBD"/>
</g>
<text id="member since" transform="matrix(0.83147 0.55557 -0.293206 0.956049 52.2566 369.372)" fill="#FEFBFF" xml:space="preserve" style="white-space: pre" font-family="Source Sans Pro" font-size="3.44098" letter-spacing="0.1em"><tspan x="0" y="3.72327">MEMBER&#10;</tspan><tspan x="0" y="8.72327">SINCE</tspan></text>
<text id="valid thru" transform="matrix(0.83147 0.55557 -0.293206 0.956049 120.575 415.021)" fill="#FEFBFF" xml:space="preserve" style="white-space: pre" font-family="Source Sans Pro" font-size="3.44098" letter-spacing="0.1em"><tspan x="0" y="3.72327">VALID&#10;</tspan><tspan x="0" y="8.72327">THRU</tspan></text>
<text id="security code" transform="matrix(0.83147 0.55557 -0.293206 0.956049 182.794 456.594)" fill="#FEFBFF" xml:space="preserve" style="white-space: pre" font-family="Source Sans Pro" font-size="3.44098" letter-spacing="0.1em"><tspan x="0" y="3.72327">SECURITY&#10;</tspan><tspan x="0" y="8.72327">CODE</tspan></text>
<path id="Vector" d="M281.858 330.101C281.743 330.473 281.506 330.744 281.196 330.854C280.887 330.965 280.531 330.905 280.207 330.689L272.887 325.798L269.587 326.973L273.029 315.751C273.143 315.379 273.381 315.108 273.69 314.998C274 314.888 274.355 314.947 274.679 315.163L283.219 320.869C283.542 321.086 283.807 321.441 283.955 321.857C284.104 322.273 284.123 322.715 284.009 323.087L281.858 330.101Z" stroke="#FEFBFF" stroke-width="0.573497" stroke-linecap="round" stroke-linejoin="round"/>
<g id="Group 51">
<path id="Vector_2" d="M266.043 360.099C269.412 362.35 273.106 361.035 274.294 357.161C275.482 353.288 273.714 348.323 270.345 346.072C266.976 343.821 263.282 345.136 262.094 349.01C260.906 352.883 262.674 357.848 266.043 360.099Z" stroke="#FEFBFF" stroke-width="0.573497" stroke-linecap="round" stroke-linejoin="round"/>
<path id="Vector_3" d="M267.064 349.795C267.351 349.422 267.755 349.216 268.205 349.213C268.655 349.211 269.121 349.411 269.521 349.78C269.922 350.148 270.23 350.661 270.392 351.227C270.553 351.793 270.558 352.376 270.405 352.873C269.975 354.276 267.93 353.754 267.93 353.754" stroke="#FEFBFF" stroke-width="0.573497" stroke-linecap="round" stroke-linejoin="round"/>
<path id="Vector_4" d="M267.118 356.592L267.124 356.596" stroke="#FEFBFF" stroke-width="0.573497" stroke-linecap="round" stroke-linejoin="round"/>
</g>
<text id="Est&#195;&#161; com d&#195;&#186;vidas? Nosso app pode te ajudar." transform="matrix(0.83147 0.55557 -0.293206 0.956049 293.659 322.775)" fill="#FEFBFF" xml:space="preserve" style="white-space: pre" font-family="Source Sans Pro" font-size="5.16147" letter-spacing="0em"><tspan x="0" y="5.8349">Est&#xe1; com d&#xfa;vidas?&#10;</tspan><tspan x="0" y="13.8349">Nosso app pode te ajudar.</tspan></text>
<text id="Fale com a gente: 0800 591 2117" transform="matrix(0.83147 0.55557 -0.293206 0.956049 284.625 352.233)" fill="#FEFBFF" xml:space="preserve" style="white-space: pre" font-family="Source Sans Pro" font-size="5.16147" letter-spacing="0em"><tspan x="0" y="5.8349">Fale com a gente:&#10;</tspan><tspan x="0" y="13.8349">0800 591 2117</tspan></text>
<ellipse id="Ellipse 167" rx="23.1093" ry="23.1092" transform="matrix(0.83147 0.55557 -0.293206 0.956049 142.527 313.486)" fill="#D9D9D9"/>
<path id="Subtract" fill-rule="evenodd" clip-rule="evenodd" d="M132.776 262.602L116.646 251.825C102.983 242.695 88.0003 248.03 83.182 263.741L78.3102 279.627C73.4919 295.337 80.6624 315.475 94.326 324.604L110.571 335.459C138.814 320.674 145.281 305.8 132.776 262.602Z" fill="url(#paint2_linear_226_319)"/>
</g>
<g id="figcb3-card-front" class="figcb3-card-front">
<g id="Rectangle 970" filter="url(#filter2_bi_226_319)">
<rect width="529.68" height="336" rx="18.0191" transform="matrix(0.760406 -0.649448 0.468701 0.883357 230 641)" fill="url(#paint3_linear_226_319)"/>
</g>
<path id="Vector 1" d="M428.443 824.79C428.132 824.204 427.446 824.095 426.917 824.546L409.756 839.203C406.955 841.596 402.543 841.509 400.844 838.306L394.574 826.49C392.876 823.288 394.443 818.017 397.245 815.624L414.435 801.02C414.963 800.568 415.141 799.72 414.83 799.135L412.797 795.302C412.486 794.717 411.8 794.607 411.272 795.058M428.443 824.79C428.443 824.79 430.053 827.824 430.476 828.622M428.443 824.79L430.476 828.622M430.476 828.622C430.787 829.208 430.609 830.056 430.08 830.507M430.08 830.507C429.286 831.186 415.783 842.718 410.859 846.924M430.08 830.507L410.859 846.924M392.05 811.475C387.092 815.709 384.928 825.39 389.383 833.786C393.837 842.182 390.706 836.279 393.563 841.663C398.017 850.059 405.9 851.159 410.859 846.924M392.05 811.475C397.008 807.241 411.272 795.058 411.272 795.058M392.05 811.475L411.272 795.058" stroke="#FBFDFF" stroke-width="1.44153"/>
<path id="Vector_5" d="M451.283 790.916L453.718 795.506C454.879 797.694 454.274 801.114 452.72 802.441L439.015 814.146C438.444 814.634 438.311 815.238 438.741 816.048L440.711 819.76C441.141 820.57 441.631 820.642 442.202 820.154L457.05 807.473C459.799 805.125 461.222 798.416 458.183 791.693C456.58 788.146 454.242 788.389 453.775 788.788L451.283 790.916ZM451.283 790.916L451.106 790.583M451.283 790.916L450.239 791.808M443.756 776.1L426.613 790.742C425.929 791.326 425.541 791.17 425.113 790.363L423.117 786.601C422.761 785.93 422.721 785.28 423.405 784.696L437.446 772.704C438.602 771.716 441.475 771.8 442.615 773.95L443.756 776.1ZM443.756 776.1L446.28 773.944C446.754 773.54 449.11 773.273 450.703 776.806C453.721 783.502 452.243 790.231 449.459 792.609L434.419 805.454C433.841 805.948 433.347 805.882 432.919 805.076L430.959 801.381C430.531 800.575 430.668 799.969 431.247 799.475L445.13 787.618C446.703 786.275 447.336 782.846 446.18 780.669L443.756 776.1ZM416.185 792.48L433.813 825.703C434.139 826.317 434.836 826.446 435.364 825.995L438.822 823.041C439.399 822.549 439.666 822.001 439.192 821.108L421.565 787.885C421.216 787.228 420.494 787.182 420.013 787.592L416.555 790.546C415.931 791.079 415.837 791.823 416.185 792.48Z" stroke="#FBFDFF" stroke-width="1.44153"/>
<text id="Rafael freitas" transform="matrix(0.760406 -0.649448 0.468701 0.883357 470.208 758.707)" fill="#FBFDFF" xml:space="preserve" style="white-space: pre" font-family="Sora" font-size="17.2984" font-weight="600" letter-spacing="0.1em"><tspan x="0" y="17.8814">RAFAEL FREITAS</tspan></text>
<g id="Group 303">
<rect id="Rectangle 344" x="0.949928" y="0.180779" width="71.8753" height="50.8783" rx="4.37954" transform="matrix(0.760406 -0.649448 0.468701 0.883357 327.333 703.843)" fill="url(#paint4_linear_226_319)" stroke="#211F21" stroke-width="1.54572"/>
<path id="Vector 9" d="M336.095 717.807L352.446 703.842" stroke="#211F21" stroke-width="1.44153" stroke-linecap="round"/>
<path id="Vector 10" d="M343.713 732.162L359.705 718.504" stroke="#211F21" stroke-width="1.44153" stroke-linecap="round"/>
<path id="Vector 11" d="M381.996 699.465L397.947 685.841" stroke="#211F21" stroke-width="1.44153" stroke-linecap="round"/>
<path id="Vector 12" d="M374.385 685.777L390.577 671.949" stroke="#211F21" stroke-width="1.44153" stroke-linecap="round"/>
<ellipse id="Ellipse 12" rx="1.57307" ry="1.57246" transform="matrix(0.760406 -0.649448 0.468701 0.883357 359.036 686.774)" fill="#211F21"/>
<g id="Vector 13">
<path d="M429.246 663.77C427.638 652.685 425.406 647.559 417.498 641.629C416.659 640.999 416.597 639.931 416.914 639.436C417.231 638.941 417.93 638.568 418.801 639.17C427.65 645.277 430.213 650.75 431.778 663.08C431.87 664.347 431.186 665.101 430.551 665.137C429.809 665.179 429.382 664.706 429.246 663.77Z" fill="#FBFDFF"/>
<path d="M413.68 645.9C413.404 646.472 413.614 647.568 414.586 648.154C420.708 652.344 422.565 656.146 423.554 665.057C423.633 665.973 424.204 666.573 424.813 666.337C425.534 666.058 425.795 665.119 425.717 664.219C424.885 654.561 422.788 650.395 415.766 645.463C415.118 645.008 414.093 645.041 413.68 645.9Z" fill="#FBFDFF"/>
<path d="M411.289 652.316C410.814 653.058 411.115 653.917 411.873 654.509C415.812 657.583 417.38 659.854 417.893 665.854C417.944 666.932 418.261 667.852 419.075 667.536C419.89 667.221 420.158 666.392 420.102 665.65C419.579 658.212 417.438 655.621 412.731 651.757C412.329 651.427 411.764 651.573 411.289 652.316Z" fill="#FBFDFF"/>
<path d="M408.084 657.744C407.732 658.718 408.02 659.493 409.114 660.23C411.418 661.808 412.122 663.199 412.431 666.482C412.544 667.95 413.061 669.308 413.982 668.858C414.902 668.409 415.082 667.777 414.84 666.107C414.054 661.838 413.134 659.83 410.171 657.308C409.435 656.626 408.636 656.6 408.084 657.744Z" fill="#FBFDFF"/>
</g>
<path id="Vector 14" d="M369.283 682.059C364.542 677.314 360.105 676.775 355.519 680.692C349.936 685.46 350.978 691.745 352.323 703.61C357.65 707.676 359.367 710.85 360.063 718.198C369.955 727.053 374.548 728.459 379.061 724.515C385.043 719.406 383.622 712.065 381.796 699.635C377.191 695.684 375.418 692.847 374.145 686.05" stroke="#211F21" stroke-width="1.44153" stroke-linecap="round"/>
</g>
<ellipse id="Ellipse 16" rx="33.9902" ry="33.5056" transform="matrix(0.760406 -0.649448 0.468701 0.883357 585.075 420.456)" fill="#E71924"/>
<ellipse id="Ellipse 17" rx="33.5181" ry="33.5056" transform="matrix(0.760406 -0.649448 0.468701 0.883357 616.393 393.947)" fill="#F99F19"/>
<path id="Intersect_2" fill-rule="evenodd" clip-rule="evenodd" d="M613.113 430.654C604.175 430.414 595.752 425.239 590.674 415.668C585.595 406.097 584.986 394.249 588.174 383.652C597.112 383.892 605.535 389.067 610.613 398.638C615.691 408.209 616.301 420.058 613.113 430.654Z" fill="#F26520"/>
</g>
</g>
<defs>
<filter id="filter0_f_226_319" x="13" y="937" width="769" height="194" filterUnits="userSpaceOnUse" color-interpolation-filters="sRGB">
<feFlood flood-opacity="0" result="BackgroundImageFix"/>
<feBlend mode="normal" in="SourceGraphic" in2="BackgroundImageFix" result="shape"/>
<feGaussianBlur stdDeviation="33.5" result="effect1_foregroundBlur_226_319"/>
</filter>
<filter id="filter1_i_226_319" x="30.8804" y="72.8191" width="533.615" height="605.589" filterUnits="userSpaceOnUse" color-interpolation-filters="sRGB">
<feFlood flood-opacity="0" result="BackgroundImageFix"/>
<feBlend mode="normal" in="SourceGraphic" in2="BackgroundImageFix" result="shape"/>
<feColorMatrix in="SourceAlpha" type="matrix" values="0 0 0 0 0 0 0 0 0 0 0 0 0 0 0 0 0 0 127 0" result="hardAlpha"/>
<feOffset dx="1.72049" dy="1.72049"/>
<feGaussianBlur stdDeviation="1.72049"/>
<feComposite in2="hardAlpha" operator="arithmetic" k2="-1" k3="1"/>
<feColorMatrix type="matrix" values="0 0 0 0 1 0 0 0 0 1 0 0 0 0 1 0 0 0 0.25 0"/>
<feBlend mode="normal" in2="shape" result="effect1_innerShadow_226_319"/>
</filter>
<filter id="filter2_bi_226_319" x="185.598" y="254.41" width="649.059" height="725.988" filterUnits="userSpaceOnUse" color-interpolation-filters="sRGB">
<feFlood flood-opacity="0" result="BackgroundImageFix"/>
<feGaussianBlur in="BackgroundImage" stdDeviation="25.2268"/>
<feComposite in2="SourceAlpha" operator="in" result="effect1_backgroundBlur_226_319"/>
<feBlend mode="normal" in="SourceGraphic" in2="effect1_backgroundBlur_226_319" result="shape"/>
<feColorMatrix in="SourceAlpha" type="matrix" values="0 0 0 0 0 0 0 0 0 0 0 0 0 0 0 0 0 0 127 0" result="hardAlpha"/>
<feOffset dx="2.1623" dy="2.1623"/>
<feGaussianBlur stdDeviation="2.1623"/>
<feComposite in2="hardAlpha" operator="arithmetic" k2="-1" k3="1"/>
<feColorMatrix type="matrix" values="0 0 0 0 1 0 0 0 0 1 0 0 0 0 1 0 0 0 0.25 0"/>
<feBlend mode="normal" in2="shape" result="effect2_innerShadow_226_319"/>
</filter>
<linearGradient id="paint0_linear_226_319" x1="90.845" y1="46.2" x2="279.383" y2="375.471" gradientUnits="userSpaceOnUse">
<stop stop-color="#6BA2F6"/>
<stop offset="1" stop-color="#736EFE"/>
</linearGradient>
<linearGradient id="paint1_linear_226_319" x1="60.8912" y1="76.2969" x2="92.8037" y2="4.40161" gradientUnits="userSpaceOnUse">
<stop stop-color="#F6F3F7"/>
<stop offset="1" stop-color="#D6D6D6"/>
</linearGradient>
<linearGradient id="paint2_linear_226_319" x1="134.445" y1="267.943" x2="81.1583" y2="300.506" gradientUnits="userSpaceOnUse">
<stop stop-color="#F5F5F5"/>
<stop offset="1" stop-color="#D6D6D6"/>
</linearGradient>
<linearGradient id="paint3_linear_226_319" x1="90.845" y1="46.2" x2="279.383" y2="375.471" gradientUnits="userSpaceOnUse">
<stop stop-color="#6BA2F6"/>
<stop offset="1" stop-color="#736EFE"/>
</linearGradient>
<linearGradient id="paint4_linear_226_319" x1="36.7105" y1="0" x2="36.7105" y2="52.4241" gradientUnits="userSpaceOnUse">
<stop stop-color="#F4F4F4"/>
<stop offset="1" stop-color="#D6D6D6"/>
</linearGradient>
</defs>
</svg>
