<svg width="117" height="70" viewBox="0 0 117 70" fill="none" xmlns="http://www.w3.org/2000/svg">
<g id="logo">
<path id="logo-letter-c" d="M56 53.1244C56 52.282 55.2691 51.5929 54.3758 51.5929L25.3593 51.5929C20.6237 51.5929 15.5444 47.7764 15.5444 43.1694L15.5444 26.1694C15.5444 21.5633 20.623 17.6694 25.3593 17.6694L54.3758 17.746C55.2691 17.746 56 17.0568 56 16.2145L56 10.701C56 9.85863 55.2691 9.16944 54.3758 9.16944M56 53.1244C56 53.1244 56 57.4893 56 58.6379M56 53.1244L56 58.6379M56 58.6379C56 59.4802 55.2691 60.1694 54.3758 60.1694M54.3758 60.1694C53.0321 60.1694 30.2023 60.1694 21.8766 60.1694M54.3758 60.1694L21.8766 60.1694M21.8766 9.16944C13.4943 9.16944 5.00001 16.9241 5 29.0028C4.99999 41.0814 5.00016 32.5896 5.00001 40.3361C4.99985 52.4146 13.4929 60.1694 21.8766 60.1694M21.8766 9.16944C30.2589 9.16944 54.3758 9.16944 54.3758 9.16944M21.8766 9.16944L54.3758 9.16944" stroke="url(#paint0_linear_145_2)" stroke-width="2"/>
<path id="logo-letter-b" d="M102.645 38.9294V45.5772C102.645 48.7462 99.8444 51.6385 97.2322 51.6385H74.1821C73.2217 51.6385 72.6978 52.1273 72.6978 53.3005V58.6774C72.6978 59.8505 73.2217 60.3394 74.1821 60.3394H99.153C103.776 60.3394 109.543 54.8647 110.154 45.5772C110.477 40.6769 107.622 38.9294 106.836 38.9294H102.645ZM102.645 38.9294V38.447M102.645 38.9294H100.89M103.032 17.7563H74.201C73.0513 17.7563 72.6975 17.2699 72.6975 16.1023V10.654C72.6975 9.68103 73.0513 9 74.201 9L97.8143 9C99.76 8.99999 103.032 11.529 103.032 14.6424V17.7563ZM103.032 17.7563H107.278C108.073 17.7563 110.965 19.4954 110.638 24.3723C110.019 33.615 104.178 39.0634 99.4948 39.0634H74.201C73.2282 39.0634 72.6975 38.577 72.6975 37.4095V32.0584C72.6975 30.8908 73.2282 30.4044 74.201 30.4044H97.5491C100.195 30.4044 103.032 27.5259 103.032 24.3723V17.7563ZM61.0654 10.6122V58.7274C61.0654 59.6172 61.7925 60.3391 62.681 60.3391H68.4971C69.4665 60.3391 70.1127 60.02 70.1127 58.7274V10.6122C70.1127 9.66072 69.3049 9 68.4971 9H62.681C61.6309 9 61.0654 9.66072 61.0654 10.6122Z" stroke="url(#paint1_linear_145_2)" stroke-width="2"/>
</g>
<defs>
<linearGradient id="paint0_linear_145_2" x1="12.0125" y1="51.4225" x2="48.5815" y2="18.4134" gradientUnits="userSpaceOnUse">
<stop stop-color="#6BA2F6"/>
<stop offset="1" stop-color="#736EFE"/>
</linearGradient>
<linearGradient id="paint1_linear_145_2" x1="69.572" y1="16.0592" x2="102.898" y2="51.7276" gradientUnits="userSpaceOnUse">
<stop stop-color="#6BA2F6"/>
<stop offset="1" stop-color="#736EFE"/>
</linearGradient>
</defs>
</svg>
