<svg viewBox="0 0 88 70" fill="none" xmlns="http://www.w3.org/2000/svg">
<g id="logocb-white">
<path id="logo-letter-c" d="M43 48.027C43 47.4324 42.4841 46.9459 41.8535 46.9459L21.3713 46.9459C18.0285 46.946 14.4431 44.252 14.4431 41L14.4431 29C14.4431 25.7486 18.028 23 21.3713 23L41.8535 23.0541C42.4841 23.0541 43 22.5676 43 21.973L43 18.0811C43 17.4865 42.4841 17 41.8535 17M43 48.027C43 48.027 43 51.1081 43 51.9189M43 48.027L43 51.9189M43 51.9189C43 52.5135 42.4841 53 41.8535 53M41.8535 53C40.905 53 24.7898 53 18.9129 53M41.8535 53L18.9129 53M18.9129 17C12.996 17 7.00001 22.4739 7 31C6.99999 39.5261 7.00011 33.5319 7.00001 39C6.9999 47.526 12.995 53 18.9129 53M18.9129 17C24.8298 17 41.8535 17 41.8535 17M18.9129 17L41.8535 17" stroke="#EBEDF0" stroke-width="1.25"/>
<path id="logo-letter-b" d="M76.3416 37.987V42.6486C76.3416 44.8707 74.365 46.8988 72.5217 46.8988H56.256C55.5783 46.8988 55.2086 47.2416 55.2086 48.0642V51.8346C55.2086 52.6572 55.5783 53 56.256 53H73.8771C77.1395 53 81.2091 49.161 81.6404 42.6486C81.8679 39.2123 79.8536 37.987 79.299 37.987H76.3416ZM76.3416 37.987V37.6487M76.3416 37.987H75.1028M76.6147 23.1401H56.2693C55.458 23.1401 55.2084 22.799 55.2084 21.9803V18.1598C55.2084 17.4775 55.458 17 56.2693 17L72.9325 17C74.3055 17 76.6147 18.7734 76.6147 20.9565V23.1401ZM76.6147 23.1401H79.6103C80.172 23.1401 82.2124 24.3596 81.9819 27.7793C81.5451 34.2605 77.4229 38.081 74.1183 38.081H56.2693C55.5828 38.081 55.2084 37.7398 55.2084 36.9212V33.1689C55.2084 32.3502 55.5828 32.0091 56.2693 32.0091H72.7453C74.6125 32.0091 76.6147 29.9907 76.6147 27.7793V23.1401ZM47 18.1305V51.8697C47 52.4936 47.513 52.9998 48.1401 52.9998H52.2443C52.9284 52.9998 53.3844 52.7761 53.3844 51.8697V18.1305C53.3844 17.4633 52.8143 17 52.2443 17H48.1401C47.399 17 47 17.4633 47 18.1305Z" stroke="#EBEDF0" stroke-width="1.25"/>
</g>
</svg>
