<svg width="117" height="70" viewBox="0 0 117 70" fill="none" xmlns="http://www.w3.org/2000/svg">
<g id="logo">
<path id="logo-letter-c" d="M56 53.1244C56 52.282 55.2691 51.5929 54.3758 51.5929L25.3593 51.5929C20.6237 51.5929 15.5444 47.7764 15.5444 43.1694L15.5444 26.1694C15.5444 21.5633 20.623 17.6694 25.3593 17.6694L54.3758 17.746C55.2691 17.746 56 17.0568 56 16.2145L56 10.701C56 9.85863 55.2691 9.16944 54.3758 9.16944M56 53.1244C56 53.1244 56 57.4893 56 58.6379M56 53.1244L56 58.6379M56 58.6379C56 59.4802 55.2691 60.1694 54.3758 60.1694M54.3758 60.1694C53.0321 60.1694 30.2023 60.1694 21.8766 60.1694M54.3758 60.1694L21.8766 60.1694M21.8766 9.16944C13.4943 9.16944 5.00001 16.9241 5 29.0028C4.99999 41.0814 5.00016 32.5896 5.00001 40.3361C4.99985 52.4146 13.4929 60.1694 21.8766 60.1694M21.8766 9.16944C30.2589 9.16944 54.3758 9.16944 54.3758 9.16944M21.8766 9.16944L54.3758 9.16944" stroke="url(#paint0_linear_145_2)" stroke-width="2"/>
<path id="logo-letter-b" fill-rule="evenodd" clip-rule="evenodd" d="M62.681 8C61.9403 8 61.255 8.23881 60.7579 8.75693C60.2673 9.26813 60.0654 9.94123 60.0654 10.6122V58.7274C60.0654 60.173 61.2438 61.3391 62.681 61.3391H62.6863H62.6916H62.697H62.7024H62.7079H62.7135H62.7192H62.7249H62.7307H62.7366H62.7425H62.7485H62.7545H62.7607H62.7669H62.7731H62.7795H62.7859H62.7923H62.7988H62.8054H62.8121H62.8188H62.8256H62.8324H62.8393H62.8463H62.8533H62.8604H62.8676H62.8748H62.8821H62.8895H62.8969H62.9043H62.9119H62.9195H62.9271H62.9348H62.9426H62.9504H62.9583H62.9663H62.9743H62.9823H62.9905H62.9986H63.0069H63.0152H63.0235H63.0319H63.0404H63.0489H63.0575H63.0661H63.0748H63.0836H63.0924H63.1012H63.1101H63.1191H63.1281H63.1372H63.1463H63.1555H63.1647H63.174H63.1833H63.1927H63.2021H63.2116H63.2211H63.2307H63.2404H63.2501H63.2598H63.2696H63.2794H63.2893H63.2992H63.3092H63.3193H63.3293H63.3395H63.3497H63.3599H63.3701H63.3805H63.3908H63.4012H63.4117H63.4222H63.4327H63.4433H63.454H63.4646H63.4754H63.4861H63.497H63.5078H63.5187H63.5297H63.5406H63.5517H63.5627H63.5738H63.585H63.5962H63.6074H63.6187H63.63H63.6414H63.6528H63.6642H63.6757H63.6872H63.6988H63.7103H63.722H63.7336H63.7454H63.7571H63.7689H63.7807H63.7926H63.8044H63.8164H63.8283H63.8403H63.8524H63.8644H63.8765H63.8887H63.9008H63.9131H63.9253H63.9376H63.9499H63.9622H63.9746H63.987H63.9994H64.0119H64.0244H64.0369H64.0495H64.0621H64.0747H64.0874H64.1H64.1128H64.1255H64.1383H64.1511H64.1639H64.1768H64.1896H64.2026H64.2155H64.2285H64.2415H64.2545H64.2675H64.2806H64.2937H64.3068H64.32H64.3331H64.3463H64.3596H64.3728H64.3861H64.3994H64.4127H64.4261H64.4394H64.4528H64.4662H64.4797H64.4931H64.5066H64.5201H64.5336H64.5471H64.5607H64.5743H64.5879H64.6015H64.6151H64.6288H64.6425H64.6562H64.6699H64.6836H64.6974H64.7111H64.7249H64.7387H64.7525H64.7664H64.7802H64.7941H64.808H64.8218H64.8358H64.8497H64.8636H64.8776H64.8915H64.9055H64.9195H64.9335H64.9476H64.9616H64.9756H64.9897H65.0038H65.0178H65.0319H65.046H65.0602H65.0743H65.0884H65.1026H65.1167H65.1309H65.145H65.1592H65.1734H65.1876H65.2018H65.216H65.2303H65.2445H65.2587H65.273H65.2872H65.3015H65.3157H65.33H65.3443H65.3585H65.3728H65.3871H65.4014H65.4157H65.43H65.4443H65.4586H65.4729H65.4872H65.5015H65.5158H65.5301H65.5445H65.5588H65.5731H65.5874H65.6017H65.6161H65.6304H65.6447H65.659H65.6733H65.6876H65.702H65.7163H65.7306H65.7449H65.7592H65.7735H65.7878H65.8021H65.8164H65.8307H65.845H65.8592H65.8735H65.8878H65.902H65.9163H65.9306H65.9448H65.959H65.9733H65.9875H66.0017H66.0159H66.0301H66.0443H66.0585H66.0727H66.0869H66.101H66.1152H66.1293H66.1435H66.1576H66.1717H66.1858H66.1999H66.214H66.2281H66.2421H66.2562H66.2702H66.2842H66.2982H66.3122H66.3262H66.3401H66.3541H66.368H66.382H66.3959H66.4098H66.4236H66.4375H66.4514H66.4652H66.479H66.4928H66.5066H66.5203H66.5341H66.5478H66.5615H66.5752H66.5889H66.6025H66.6162H66.6298H66.6434H66.657H66.6705H66.6841H66.6976H66.7111H66.7245H66.738H66.7514H66.7648H66.7782H66.7916H66.8049H66.8182H66.8315H66.8448H66.858H66.8713H66.8844H66.8976H66.9108H66.9239H66.937H66.95H66.9631H66.9761H66.9891H67.0021H67.015H67.0279H67.0408H67.0536H67.0665H67.0793H67.092H67.1048H67.1175H67.1301H67.1428H67.1554H67.168H67.1806H67.1931H67.2056H67.218H67.2305H67.2429H67.2552H67.2676H67.2799H67.2921H67.3044H67.3166H67.3287H67.3409H67.353H67.365H67.3771H67.3891H67.401H67.4129H67.4248H67.4367H67.4485H67.4603H67.472H67.4837H67.4954H67.507H67.5186H67.5301H67.5416H67.5531H67.5645H67.5759H67.5873H67.5986H67.6098H67.6211H67.6322H67.6434H67.6545H67.6656H67.6766H67.6876H67.6985H67.7094H67.7202H67.731H67.7418H67.7525H67.7632H67.7738H67.7844H67.7949H67.8054H67.8159H67.8263H67.8366H67.847H67.8572H67.8674H67.8776H67.8877H67.8978H67.9078H67.9178H67.9277H67.9376H67.9474H67.9572H67.9669H67.9766H67.9863H67.9958H68.0054H68.0148H68.0243H68.0336H68.043H68.0522H68.0615H68.0706H68.0797H68.0888H68.0978H68.1067H68.1156H68.1245H68.1333H68.142H68.1507H68.1593H68.1679H68.1764H68.1849H68.1933H68.2016H68.2099H68.2181H68.2263H68.2344H68.2424H68.2504H68.2584H68.2663H68.2741H68.2818H68.2895H68.2972H68.3048H68.3123H68.3197H68.3271H68.3345H68.3417H68.349H68.3561H68.3632H68.3702H68.3772H68.3841H68.3909H68.3977H68.4044H68.411H68.4176H68.4241H68.4306H68.437H68.4433H68.4495H68.4557H68.4618H68.4679H68.4739H68.4798H68.4856H68.4914H68.4971C69.0513 61.3391 69.7575 61.2568 70.3177 60.7786C70.9123 60.271 71.1127 59.5241 71.1127 58.7274V58.7193V58.7102V58.7001V58.689V58.6769V58.6638V58.6496V58.6345V58.6184V58.6013V58.5833V58.5642V58.5442V58.5232V58.5013V58.4784V58.4545V58.4297V58.4039V58.3772V58.3496V58.321V58.2915V58.261V58.2296V58.1973V58.1641V58.13V58.095V58.0591V58.0222V57.9845V57.9459V57.9064V57.866V57.8247V57.7825V57.7395V57.6956V57.6509V57.6053V57.5588V57.5115V57.4633V57.4143V57.3644V57.3137V57.2622V57.2098V57.1567V57.1027V57.0479V56.9922V56.9358V56.8786V56.8205V56.7617V56.7021V56.6416V56.5804V56.5185V56.4557V56.3922V56.3279V56.2628V56.197V56.1304V56.0631V55.995V55.9262V55.8566V55.7863V55.7153V55.6435V55.571V55.4978V55.4239V55.3493V55.2739V55.1979V55.1211V55.0437V54.9656V54.8867V54.8072V54.727V54.6462V54.5646V54.4824V54.3996V54.316V54.2319V54.147V54.0615V53.9754V53.8886V53.8012V53.7132V53.6245V53.5352V53.4453V53.3548V53.2637V53.1719V53.0796V52.9866V52.8931V52.7989V52.7042V52.6089V52.513V52.4165V52.3195V52.2219V52.1237V52.025V51.9257V51.8258V51.7254V51.6245V51.523V51.421V51.3185V51.2154V51.1118V51.0077V50.903V50.7979V50.6922V50.5861V50.4794V50.3723V50.2646V50.1565V50.0479V49.9388V49.8292V49.7192V49.6086V49.4977V49.3862V49.2743V49.162V49.0492V48.9359V48.8223V48.7081V48.5936V48.4786V48.3632V48.2474V48.1312V48.0145V47.8975V47.78V47.6621V47.5439V47.4252V47.3062V47.1868V47.067V46.9468V46.8262V46.7053V46.584V46.4624V46.3404V46.218V46.0953V45.9723V45.8489V45.7252V45.6011V45.4767V45.352V45.227V45.1017V44.976V44.85V44.7238V44.5972V44.4703V44.3432V44.2158V44.088V43.96V43.8317V43.7032V43.5744V43.4453V43.3159V43.1863V43.0565V42.9263V42.796V42.6654V42.5346V42.4035V42.2722V42.1407V42.009V41.8771V41.7449V41.6125V41.48V41.3472V41.2142V41.0811V40.9477V40.8142V40.6805V40.5466V40.4125V40.2783V40.1439V40.0094V39.8747V39.7398V39.6048V39.4696V39.3343V39.1989V39.0634V38.9277V38.7918V38.6559V38.5199V38.3837V38.2474V38.1111V37.9746V37.838V37.7014V37.5646V37.4278V37.2909V37.1539V37.0168V36.8797V36.7425V36.6052V36.4679V36.3305V36.1931V36.0557V35.9182V35.7807V35.6431V35.5055V35.3679V35.2303V35.0926V34.9549V34.8173V34.6796V34.5419V34.4042V34.2666V34.1289V33.9913V33.8537V33.7161V33.5785V33.441V33.3035V33.166V33.0286V32.8912V32.7539V32.6167V32.4795V32.3423V32.2053V32.0683V31.9314V31.7945V31.6578V31.5211V31.3845V31.248V31.1117V30.9754V30.8392V30.7032V30.5672V30.4314V30.2957V30.1602V30.0247V29.8894V29.7543V29.6192V29.4844V29.3497V29.2151V29.0807V28.9465V28.8124V28.6785V28.5448V28.4112V28.2779V28.1447V28.0117V27.879V27.7464V27.614V27.4818V27.3499V27.2181V27.0866V26.9553V26.8243V26.6934V26.5628V26.4325V26.3023V26.1725V26.0429V25.9135V25.7844V25.6556V25.527V25.3987V25.2707V25.1429V25.0155V24.8883V24.7614V24.6348V24.5086V24.3826V24.2569V24.1316V24.0065V23.8818V23.7574V23.6333V23.5096V23.3862V23.2631V23.1404V23.018V22.896V22.7744V22.6531V22.5321V22.4115V22.2914V22.1715V22.0521V21.933V21.8144V21.6961V21.5782V21.4607V21.3436V21.227V21.1107V20.9949V20.8795V20.7645V20.6499V20.5357V20.422V20.3088V20.196V20.0836V19.9717V19.8602V19.7492V19.6387V19.5286V19.419V19.3099V19.2012V19.0931V18.9854V18.8782V18.7716V18.6654V18.5597V18.4545V18.3499V18.2457V18.1421V18.039V17.9364V17.8344V17.7329V17.6319V17.5315V17.4317V17.3323V17.2336V17.1354V17.0377V16.9407V16.8442V16.7482V16.6529V16.5581V16.464V16.3704V16.2774V16.185V16.0933V16.0021V15.9115V15.8216V15.7323V15.6436V15.5555V15.4681V15.3813V15.2951V15.2096V15.1247V15.0405V14.9569V14.874V14.7918V14.7102V14.6293V14.5491V14.4696V14.3907V14.3126V14.2351V14.1583V14.0822V14.0068V13.9322V13.8582V13.785V13.7125V13.6407V13.5696V13.4993V13.4297V13.3608V13.2927V13.2253V13.1587V13.0928V13.0277V12.9634V12.8998V12.8371V12.775V12.7138V12.6533V12.5937V12.5348V12.4767V12.4194V12.363V12.3073V12.2524V12.1984V12.1452V12.0928V12.0412V11.9905V11.9406V11.8915V11.8433V11.796V11.7494V11.7038V11.659V11.6151V11.572V11.5298V11.4885V11.4481V11.4085V11.3698V11.3321V11.2952V11.2592V11.2241V11.19V11.1567V11.1244V11.093V11.0625V11.0329V11.0043V10.9766V10.9498V10.924V10.8992V10.8752V10.8523V10.8303V10.8093V10.7892V10.7701V10.752V10.7349V10.7187V10.7036V10.6894V10.6762V10.664V10.6529V10.6427V10.6336V10.6254V10.6183V10.6122C71.1127 9.04902 69.7959 8 68.4971 8H62.681ZM62.0654 10.6122C62.0654 10.3317 62.1462 10.1987 62.201 10.1417C62.2491 10.0915 62.3716 10 62.681 10H68.4971C68.814 10 69.1127 10.2724 69.1127 10.6122V10.6183V10.6254V10.6336V10.6427V10.6529V10.664V10.6762V10.6894V10.7036V10.7187V10.7349V10.752V10.7701V10.7892V10.8093V10.8303V10.8523V10.8752V10.8992V10.924V10.9498V10.9766V11.0043V11.0329V11.0625V11.093V11.1244V11.1567V11.19V11.2241V11.2592V11.2952V11.3321V11.3698V11.4085V11.4481V11.4885V11.5298V11.572V11.6151V11.659V11.7038V11.7494V11.796V11.8433V11.8915V11.9406V11.9905V12.0412V12.0928V12.1452V12.1984V12.2524V12.3073V12.363V12.4194V12.4767V12.5348V12.5937V12.6533V12.7138V12.775V12.8371V12.8998V12.9634V13.0277V13.0928V13.1587V13.2253V13.2927V13.3608V13.4297V13.4993V13.5696V13.6407V13.7125V13.785V13.8582V13.9322V14.0068V14.0822V14.1583V14.2351V14.3126V14.3907V14.4696V14.5491V14.6293V14.7102V14.7918V14.874V14.9569V15.0405V15.1247V15.2096V15.2951V15.3813V15.4681V15.5555V15.6436V15.7323V15.8216V15.9115V16.0021V16.0933V16.185V16.2774V16.3704V16.464V16.5581V16.6529V16.7482V16.8442V16.9407V17.0377V17.1354V17.2336V17.3323V17.4317V17.5315V17.6319V17.7329V17.8344V17.9364V18.039V18.1421V18.2457V18.3499V18.4545V18.5597V18.6654V18.7716V18.8782V18.9854V19.0931V19.2012V19.3099V19.419V19.5286V19.6387V19.7492V19.8602V19.9717V20.0836V20.196V20.3088V20.422V20.5357V20.6499V20.7645V20.8795V20.9949V21.1107V21.227V21.3436V21.4607V21.5782V21.6961V21.8144V21.933V22.0521V22.1715V22.2914V22.4115V22.5321V22.6531V22.7744V22.896V23.018V23.1404V23.2631V23.3862V23.5096V23.6333V23.7574V23.8818V24.0065V24.1316V24.2569V24.3826V24.5086V24.6348V24.7614V24.8883V25.0155V25.1429V25.2707V25.3987V25.527V25.6556V25.7844V25.9135V26.0429V26.1725V26.3023V26.4325V26.5628V26.6934V26.8243V26.9553V27.0866V27.2181V27.3499V27.4818V27.614V27.7464V27.879V28.0117V28.1447V28.2779V28.4112V28.5448V28.6785V28.8124V28.9465V29.0807V29.2151V29.3497V29.4844V29.6192V29.7543V29.8894V30.0247V30.1602V30.2957V30.4314V30.5672V30.7032V30.8392V30.9754V31.1117V31.248V31.3845V31.5211V31.6578V31.7945V31.9314V32.0683V32.2053V32.3423V32.4795V32.6167V32.7539V32.8912V33.0286V33.166V33.3035V33.441V33.5785V33.7161V33.8537V33.9913V34.1289V34.2666V34.4042V34.5419V34.6796V34.8173V34.9549V35.0926V35.2303V35.3679V35.5055V35.6431V35.7807V35.9182V36.0557V36.1931V36.3305V36.4679V36.6052V36.7425V36.8797V37.0168V37.1539V37.2909V37.4278V37.5646V37.7014V37.838V37.9746V38.1111V38.2474V38.3837V38.5199V38.6559V38.7918V38.9277V39.0634V39.1989V39.3343V39.4696V39.6048V39.7398V39.8747V40.0094V40.1439V40.2783V40.4125V40.5466V40.6805V40.8142V40.9477V41.0811V41.2142V41.3472V41.48V41.6125V41.7449V41.8771V42.009V42.1407V42.2722V42.4035V42.5346V42.6654V42.796V42.9263V43.0565V43.1863V43.3159V43.4453V43.5744V43.7032V43.8317V43.96V44.088V44.2158V44.3432V44.4703V44.5972V44.7238V44.85V44.976V45.1017V45.227V45.352V45.4767V45.6011V45.7252V45.8489V45.9723V46.0953V46.218V46.3404V46.4624V46.584V46.7053V46.8262V46.9468V47.067V47.1868V47.3062V47.4252V47.5439V47.6621V47.78V47.8975V48.0145V48.1312V48.2474V48.3632V48.4786V48.5936V48.7081V48.8223V48.9359V49.0492V49.162V49.2743V49.3862V49.4977V49.6086V49.7192V49.8292V49.9388V50.0479V50.1565V50.2646V50.3723V50.4794V50.5861V50.6922V50.7979V50.903V51.0077V51.1118V51.2154V51.3185V51.421V51.523V51.6245V51.7254V51.8258V51.9257V52.025V52.1237V52.2219V52.3195V52.4165V52.513V52.6089V52.7042V52.7989V52.8931V52.9866V53.0796V53.1719V53.2637V53.3548V53.4453V53.5352V53.6245V53.7132V53.8012V53.8886V53.9754V54.0615V54.147V54.2319V54.316V54.3996V54.4824V54.5646V54.6462V54.727V54.8072V54.8867V54.9656V55.0437V55.1211V55.1979V55.2739V55.3493V55.4239V55.4978V55.571V55.6435V55.7153V55.7863V55.8566V55.9262V55.995V56.0631V56.1304V56.197V56.2628V56.3279V56.3922V56.4557V56.5185V56.5804V56.6416V56.7021V56.7617V56.8205V56.8786V56.9358V56.9922V57.0479V57.1027V57.1567V57.2098V57.2622V57.3137V57.3644V57.4143V57.4633V57.5115V57.5588V57.6053V57.6509V57.6956V57.7395V57.7825V57.8247V57.866V57.9064V57.9459V57.9845V58.0222V58.0591V58.095V58.13V58.1641V58.1973V58.2296V58.261V58.2915V58.321V58.3496V58.3772V58.4039V58.4297V58.4545V58.4784V58.5013V58.5232V58.5442V58.5642V58.5833V58.6013V58.6184V58.6345V58.6496V58.6638V58.6769V58.689V58.7001V58.7102V58.7193V58.7274C69.1127 58.9722 69.0815 59.1138 69.0551 59.1877C69.0425 59.2229 69.0317 59.2409 69.0268 59.2482C69.0224 59.2547 69.0201 59.2566 69.0193 59.2574L69.0192 59.2574C69.0139 59.2619 68.9123 59.3391 68.4971 59.3391H68.4914H68.4856H68.4798H68.4739H68.4679H68.4618H68.4557H68.4495H68.4433H68.437H68.4306H68.4241H68.4176H68.411H68.4044H68.3977H68.3909H68.3841H68.3772H68.3702H68.3632H68.3561H68.349H68.3417H68.3345H68.3271H68.3197H68.3123H68.3048H68.2972H68.2895H68.2818H68.2741H68.2663H68.2584H68.2504H68.2424H68.2344H68.2263H68.2181H68.2099H68.2016H68.1933H68.1849H68.1764H68.1679H68.1593H68.1507H68.142H68.1333H68.1245H68.1156H68.1067H68.0978H68.0888H68.0797H68.0706H68.0615H68.0522H68.043H68.0336H68.0243H68.0148H68.0054H67.9958H67.9863H67.9766H67.9669H67.9572H67.9474H67.9376H67.9277H67.9178H67.9078H67.8978H67.8877H67.8776H67.8674H67.8572H67.847H67.8366H67.8263H67.8159H67.8054H67.7949H67.7844H67.7738H67.7632H67.7525H67.7418H67.731H67.7202H67.7094H67.6985H67.6876H67.6766H67.6656H67.6545H67.6434H67.6322H67.6211H67.6098H67.5986H67.5873H67.5759H67.5645H67.5531H67.5416H67.5301H67.5186H67.507H67.4954H67.4837H67.472H67.4603H67.4485H67.4367H67.4248H67.4129H67.401H67.3891H67.3771H67.365H67.353H67.3409H67.3287H67.3166H67.3044H67.2921H67.2799H67.2676H67.2552H67.2429H67.2305H67.218H67.2056H67.1931H67.1806H67.168H67.1554H67.1428H67.1301H67.1175H67.1048H67.092H67.0793H67.0665H67.0536H67.0408H67.0279H67.015H67.0021H66.9891H66.9761H66.9631H66.95H66.937H66.9239H66.9108H66.8976H66.8844H66.8713H66.858H66.8448H66.8315H66.8182H66.8049H66.7916H66.7782H66.7648H66.7514H66.738H66.7245H66.7111H66.6976H66.6841H66.6705H66.657H66.6434H66.6298H66.6162H66.6025H66.5889H66.5752H66.5615H66.5478H66.5341H66.5203H66.5066H66.4928H66.479H66.4652H66.4514H66.4375H66.4236H66.4098H66.3959H66.382H66.368H66.3541H66.3401H66.3262H66.3122H66.2982H66.2842H66.2702H66.2562H66.2421H66.2281H66.214H66.1999H66.1858H66.1717H66.1576H66.1435H66.1293H66.1152H66.101H66.0869H66.0727H66.0585H66.0443H66.0301H66.0159H66.0017H65.9875H65.9733H65.959H65.9448H65.9306H65.9163H65.902H65.8878H65.8735H65.8592H65.845H65.8307H65.8164H65.8021H65.7878H65.7735H65.7592H65.7449H65.7306H65.7163H65.702H65.6876H65.6733H65.659H65.6447H65.6304H65.6161H65.6017H65.5874H65.5731H65.5588H65.5445H65.5301H65.5158H65.5015H65.4872H65.4729H65.4586H65.4443H65.43H65.4157H65.4014H65.3871H65.3728H65.3585H65.3443H65.33H65.3157H65.3015H65.2872H65.273H65.2587H65.2445H65.2303H65.216H65.2018H65.1876H65.1734H65.1592H65.145H65.1309H65.1167H65.1026H65.0884H65.0743H65.0602H65.046H65.0319H65.0178H65.0038H64.9897H64.9756H64.9616H64.9476H64.9335H64.9195H64.9055H64.8915H64.8776H64.8636H64.8497H64.8358H64.8218H64.808H64.7941H64.7802H64.7664H64.7525H64.7387H64.7249H64.7111H64.6974H64.6836H64.6699H64.6562H64.6425H64.6288H64.6151H64.6015H64.5879H64.5743H64.5607H64.5471H64.5336H64.5201H64.5066H64.4931H64.4797H64.4662H64.4528H64.4394H64.4261H64.4127H64.3994H64.3861H64.3728H64.3596H64.3463H64.3331H64.32H64.3068H64.2937H64.2806H64.2675H64.2545H64.2415H64.2285H64.2155H64.2026H64.1896H64.1768H64.1639H64.1511H64.1383H64.1255H64.1128H64.1H64.0874H64.0747H64.0621H64.0495H64.0369H64.0244H64.0119H63.9994H63.987H63.9746H63.9622H63.9499H63.9376H63.9253H63.9131H63.9008H63.8887H63.8765H63.8644H63.8524H63.8403H63.8283H63.8164H63.8044H63.7926H63.7807H63.7689H63.7571H63.7454H63.7336H63.722H63.7103H63.6988H63.6872H63.6757H63.6642H63.6528H63.6414H63.63H63.6187H63.6074H63.5962H63.585H63.5738H63.5627H63.5517H63.5406H63.5297H63.5187H63.5078H63.497H63.4861H63.4754H63.4646H63.454H63.4433H63.4327H63.4222H63.4117H63.4012H63.3908H63.3805H63.3701H63.3599H63.3497H63.3395H63.3293H63.3193H63.3092H63.2992H63.2893H63.2794H63.2696H63.2598H63.2501H63.2404H63.2307H63.2211H63.2116H63.2021H63.1927H63.1833H63.174H63.1647H63.1555H63.1463H63.1372H63.1281H63.1191H63.1101H63.1012H63.0924H63.0836H63.0748H63.0661H63.0575H63.0489H63.0404H63.0319H63.0235H63.0152H63.0069H62.9986H62.9905H62.9823H62.9743H62.9663H62.9583H62.9504H62.9426H62.9348H62.9271H62.9195H62.9119H62.9043H62.8969H62.8895H62.8821H62.8748H62.8676H62.8604H62.8533H62.8463H62.8393H62.8324H62.8256H62.8188H62.8121H62.8054H62.7988H62.7923H62.7859H62.7795H62.7731H62.7669H62.7607H62.7545H62.7485H62.7425H62.7366H62.7307H62.7249H62.7192H62.7135H62.7079H62.7024H62.697H62.6916H62.6863H62.681C62.3411 59.3391 62.0654 59.0613 62.0654 58.7274V10.6122ZM107.265 18.7563H104.032V24.3723C104.032 26.2454 103.195 27.9884 102.014 29.2535C100.842 30.509 99.2227 31.4044 97.5491 31.4044H74.201C74.0377 31.4044 73.9365 31.4252 73.8795 31.4448C73.8286 31.4622 73.8138 31.4777 73.8093 31.4824C73.8026 31.4895 73.6975 31.6052 73.6975 32.0584V37.4095C73.6975 37.8626 73.8026 37.9783 73.8093 37.9854C73.8139 37.9902 73.8286 38.0057 73.8795 38.0231C73.9366 38.0426 74.0377 38.0634 74.201 38.0634H99.4948C101.46 38.0634 103.833 36.9021 105.826 34.5392C107.802 32.1963 109.344 28.73 109.641 24.3054C109.789 22.0839 109.204 20.6711 108.578 19.8346C108.26 19.409 107.924 19.1228 107.649 18.9492C107.443 18.8184 107.313 18.7762 107.271 18.7627C107.261 18.7595 107.256 18.7579 107.256 18.7571C107.256 18.7565 107.259 18.7564 107.265 18.7563ZM102.032 18.7563V24.3723C102.032 25.6528 101.451 26.9258 100.552 27.8885C99.6443 28.8606 98.5215 29.4044 97.5491 29.4044H74.201C73.5599 29.4044 72.8715 29.566 72.3596 30.1047C71.8578 30.6327 71.6975 31.344 71.6975 32.0584V37.4095C71.6975 38.1239 71.8578 38.8351 72.3596 39.3631C72.8715 39.9019 73.5599 40.0634 74.201 40.0634H99.4948C99.9582 40.0634 100.427 40.018 100.896 39.9294H101.645V45.5773C101.645 46.8711 101.068 48.1535 100.182 49.1202C99.2848 50.0976 98.181 50.6385 97.2322 50.6385H74.1821C73.5425 50.6385 72.8567 50.8033 72.3489 51.3471C71.8545 51.8766 71.6978 52.5872 71.6978 53.3005V58.6774C71.6978 59.3907 71.8545 60.1013 72.3489 60.6308C72.8566 61.1746 73.5425 61.3394 74.1821 61.3394H99.153C101.848 61.3394 104.704 59.7628 106.928 57.0791C109.169 54.3747 110.834 50.4794 111.152 45.6429C111.327 42.9804 110.641 41.0802 109.717 39.8233C109.26 39.202 108.75 38.7458 108.273 38.4384C107.835 38.1559 107.314 37.9294 106.836 37.9294H105.167C105.939 37.3381 106.676 36.6337 107.355 35.8286C109.625 33.1366 111.313 29.2573 111.636 24.4391C111.814 21.7838 111.117 19.8886 110.18 18.6363C109.717 18.0176 109.201 17.5643 108.719 17.2594C108.275 16.9784 107.753 16.7563 107.278 16.7563H104.032V14.6424C104.032 12.7318 103.035 11.0774 101.846 9.93315C100.683 8.81331 99.1427 8 97.8143 8L74.201 8C73.4224 8 72.7124 8.24004 72.2355 8.83963C71.7961 9.39209 71.6975 10.0785 71.6975 10.654V16.1023C71.6975 16.7323 71.7802 17.4664 72.2628 18.0225C72.7786 18.617 73.5191 18.7563 74.201 18.7563L102.032 18.7563ZM102.032 16.7563V14.6424C102.032 13.4396 101.393 12.2728 100.46 11.3742C99.5005 10.4512 98.4316 10 97.8143 10L74.201 10C74.0095 10 73.9053 10.0287 73.857 10.0483C73.8166 10.0646 73.8064 10.0775 73.8008 10.0845L73.8007 10.0846C73.7758 10.1159 73.6975 10.2565 73.6975 10.654V16.1023C73.6975 16.3507 73.7171 16.513 73.7423 16.6165C73.7533 16.6616 73.7637 16.6888 73.7704 16.7034C73.8109 16.7211 73.9285 16.7563 74.201 16.7563L102.032 16.7563ZM73.7526 16.6935C73.7529 16.6933 73.7556 16.6948 73.76 16.6984C73.7566 16.6966 73.7545 16.6952 73.7535 16.6944C73.7528 16.6939 73.7525 16.6936 73.7526 16.6935ZM106.816 39.9294H103.645V45.5773C103.645 47.4523 102.822 49.2006 101.655 50.4723C100.498 51.7332 98.8956 52.6385 97.2322 52.6385H74.1821C74.0234 52.6385 73.9269 52.6591 73.874 52.6776C73.8279 52.6936 73.815 52.7075 73.8109 52.7119L73.8107 52.712C73.8031 52.7202 73.6978 52.8406 73.6978 53.3005V58.6774C73.6978 59.1373 73.8031 59.2577 73.8108 59.2659L73.8109 59.266C73.815 59.2704 73.8279 59.2843 73.874 59.3003C73.9269 59.3188 74.0234 59.3394 74.1821 59.3394H99.153C101.081 59.3394 103.42 58.1787 105.388 55.8031C107.339 53.4483 108.864 49.9625 109.156 45.5116C109.304 43.2737 108.724 41.8499 108.105 41.008C107.791 40.58 107.459 40.293 107.19 40.1196C106.991 39.9915 106.866 39.9495 106.826 39.9359C106.816 39.9326 106.811 39.9309 106.811 39.9301C106.811 39.9297 106.813 39.9295 106.816 39.9294Z" fill="url(#paint1_linear_145_2)"/>
</g>
<defs>
<linearGradient id="paint0_linear_145_2" x1="12.0125" y1="51.4225" x2="48.5815" y2="18.4134" gradientUnits="userSpaceOnUse">
<stop stop-color="#6BA2F6"/>
<stop offset="1" stop-color="#736EFE"/>
</linearGradient>
<linearGradient id="paint1_linear_145_2" x1="68.915" y1="15.3342" x2="103.536" y2="52.4376" gradientUnits="userSpaceOnUse">
<stop stop-color="#6BA2F6"/>
<stop offset="1" stop-color="#736EFE"/>
</linearGradient>
</defs>
</svg>
